<svg xmlns="http://www.w3.org/2000/svg" viewBox="0 0 1600 1000"><defs><linearGradient id="g" x1="0" y1="0" x2="1" y2="1"><stop stop-color="#11100e"/><stop offset=".55" stop-color="#3b3a35"/><stop offset="1" stop-color="#c8ad7f"/></linearGradient><filter id="n"><feTurbulence baseFrequency=".7" numOctaves="2" stitchTiles="stitch"/><feColorMatrix type="saturate" values="0"/><feComponentTransfer><feFuncA type="table" tableValues="0 .18"/></feComponentTransfer></filter></defs><rect fill="url(#g)" width="1600" height="1000"/><path d="M0 760 C280 600 420 710 650 520 C870 338 1110 455 1600 250 L1600 1000 L0 1000Z" fill="#070706" opacity=".86"/><path d="M520 650 L710 548 L930 650 Z" fill="#91856f"/><path d="M580 650 V535 L760 455 L920 545 V650 Z" fill="#211f1b"/><rect x="675" y="520" width="190" height="70" fill="#d8d0c3" opacity=".45"/><ellipse cx="1120" cy="662" rx="100" ry="22" fill="#0b0b0a"/><path d="M1060 635 h120 l-28 22 h-64z" fill="#c4c6c1"/><circle cx="1050" cy="633" r="36" fill="none" stroke="#c4c6c1" stroke-width="7" opacity=".7"/><circle cx="1190" cy="633" r="36" fill="none" stroke="#c4c6c1" stroke-width="7" opacity=".7"/><text x="80" y="110" fill="#f3efe6" font-family="Georgia" font-size="54" letter-spacing="8">LANDING INTEGRATION</text><text x="84" y="168" fill="#c8ad7f" font-family="Arial" font-size="18" letter-spacing="5">SUBJECT TO APPROVALS</text><rect filter="url(#n)" width="1600" height="1000" opacity=".4"/></svg>
