<svg xmlns="http://www.w3.org/2000/svg" viewBox="0 0 1600 1000" role="img" aria-label="ALPINE SILENCE"><defs><linearGradient id="sky" x1="0" y1="0" x2="0" y2="1"><stop stop-color="#25150f"/><stop offset=".42" stop-color="#a9673f"/><stop offset=".72" stop-color="#e7bc7b"/><stop offset="1" stop-color="#372012"/></linearGradient><radialGradient id="sun" cx="72%" cy="26%" r="45%"><stop stop-color="#fff1bc" stop-opacity=".85"/><stop offset=".25" stop-color="#d9a15e" stop-opacity=".38"/><stop offset="1" stop-color="#000" stop-opacity="0"/></radialGradient><linearGradient id="stone" x1="0" y1="0" x2="1" y2="1"><stop stop-color="#d9c3a0"/><stop offset=".45" stop-color="#8d7459"/><stop offset="1" stop-color="#302319"/></linearGradient><filter id="soft"><feGaussianBlur stdDeviation="18"/></filter><filter id="grain"><feTurbulence baseFrequency=".9" numOctaves="4" seed="7"/><feColorMatrix type="saturate" values="0"/><feComponentTransfer><feFuncA type="table" tableValues="0 .16"/></feComponentTransfer></filter><filter id="photo"><feTurbulence type="fractalNoise" baseFrequency=".015" numOctaves="5" seed="12"/><feDisplacementMap in="SourceGraphic" scale="10"/></filter></defs><rect width="1600" height="1000" fill="url(#sky)"/><rect width="1600" height="1000" fill="url(#sun)"/><circle cx="1160" cy="245" r="120" fill="#ffd98b" opacity=".42" filter="url(#soft)"/><path d="M0 390 C230 310 420 360 620 290 C900 190 1120 260 1600 135 L1600 1000 L0 1000Z" fill="#17130f" opacity=".42"/><path d="M0 760 C260 630 520 690 770 505 C1030 320 1280 455 1600 250" fill="#24180f" opacity=".9" filter="url(#photo)"/><path d="M0 825 C300 750 520 760 760 680 C1020 590 1280 640 1600 520 L1600 1000 L0 1000Z" fill="#0c0a07" opacity=".72"/><g opacity=".34"><path d="M80 760 l20 -90 l20 90z" fill="#191008"/><path d="M175 760 l20 -90 l20 90z" fill="#191008"/><path d="M270 760 l20 -90 l20 90z" fill="#191008"/><path d="M365 760 l20 -90 l20 90z" fill="#191008"/><path d="M460 760 l20 -90 l20 90z" fill="#191008"/><path d="M555 760 l20 -90 l20 90z" fill="#191008"/><path d="M650 760 l20 -90 l20 90z" fill="#191008"/><path d="M745 760 l20 -90 l20 90z" fill="#191008"/><path d="M840 760 l20 -90 l20 90z" fill="#191008"/><path d="M935 760 l20 -90 l20 90z" fill="#191008"/><path d="M1030 760 l20 -90 l20 90z" fill="#191008"/><path d="M1125 760 l20 -90 l20 90z" fill="#191008"/><path d="M1220 760 l20 -90 l20 90z" fill="#191008"/><path d="M1315 760 l20 -90 l20 90z" fill="#191008"/><path d="M1410 760 l20 -90 l20 90z" fill="#191008"/></g><g transform="translate(0 8)"><path d="M575 700 L760 530 L980 700 Z" fill="#3b2115"/><path d="M590 700 V575 L765 486 L980 590 V700 Z" fill="url(#stone)"/><path d="M650 662 h92 v-72 h-92z M800 655 h110 v-82 h-110z" fill="#ffd98b" opacity=".62"/><path d="M590 700 H1000" stroke="#f1d19a" stroke-opacity=".35" stroke-width="2"/><g fill="#f1ddbd" opacity=".28"><circle cx="635" cy="605" r="5"/><circle cx="700" cy="640" r="4"/><circle cx="875" cy="610" r="6"/><circle cx="925" cy="655" r="4"/></g></g><ellipse cx="1115" cy="706" rx="170" ry="42" fill="#070604" opacity=".48"/><path d="M970 690 C1050 655 1170 655 1250 690" stroke="#d9b66f" stroke-width="8" stroke-linecap="round" opacity=".45"/><path d="M1010 680 h210 l-48 32 h-115z" fill="#efe7dc" opacity=".78"/><circle cx="985" cy="675" r="44" fill="none" stroke="#efe7dc" stroke-width="7" opacity=".5"/><circle cx="1248" cy="675" r="44" fill="none" stroke="#efe7dc" stroke-width="7" opacity=".5"/><text x="78" y="118" fill="#fff2df" font-family="Georgia,serif" font-size="48" letter-spacing="9" opacity=".92">ALPINE SILENCE</text><text x="82" y="174" fill="#f5c982" font-family="Arial,sans-serif" font-size="17" letter-spacing="5" opacity=".88">snowline refuge at amber dusk</text><rect width="1600" height="1000" fill="url(#sun)" opacity=".25"/><rect width="1600" height="1000" filter="url(#grain)" opacity=".75"/><rect width="1600" height="1000" fill="none" stroke="#f2d6a6" stroke-opacity=".08" stroke-width="18"/></svg>